<?xml version="1.0" standalone="no"?>
<!DOCTYPE svg PUBLIC "-//W3C//DTD SVG 20010904//EN"
 "http://www.w3.org/TR/2001/REC-SVG-20010904/DTD/svg10.dtd">
<svg version="1.0" xmlns="http://www.w3.org/2000/svg"
 width="558.000000pt" height="558.000000pt" viewBox="0 0 558.000000 558.000000"
 preserveAspectRatio="xMidYMid meet">
<metadata>
Created by potrace 1.11, written by Peter Selinger 2001-2013
</metadata>
<g transform="translate(0.000000,558.000000) scale(0.100000,-0.100000)"
fill="#000000" stroke="none">
<path d="M2527 5523 c-3 -2 -33 -6 -68 -9 -34 -2 -74 -7 -88 -9 -33 -7 -88
-15 -121 -19 -14 -1 -30 -5 -35 -8 -9 -5 -67 -17 -115 -23 -8 -1 -22 -5 -30
-8 -15 -5 -157 -47 -175 -52 -11 -2 -25 -7 -115 -42 -36 -14 -69 -26 -75 -27
-29 -5 -334 -163 -423 -220 -90 -57 -236 -162 -268 -191 -6 -5 -42 -37 -79
-70 -176 -154 -351 -352 -462 -523 -21 -31 -40 -59 -43 -62 -8 -8 -27 -40 -57
-97 -15 -29 -31 -53 -35 -53 -4 0 -8 -4 -8 -9 0 -5 -30 -70 -66 -145 -36 -76
-67 -143 -68 -149 -2 -7 -8 -23 -13 -37 -58 -143 -137 -438 -149 -555 -2 -27
-7 -56 -9 -63 -26 -72 -27 -624 -1 -742 3 -14 7 -45 10 -70 9 -77 16 -121 26
-164 5 -22 11 -54 14 -71 16 -88 38 -165 91 -330 20 -61 74 -196 95 -237 11
-21 16 -38 12 -38 -4 0 -2 -4 3 -8 6 -4 20 -27 33 -52 54 -108 168 -293 206
-333 6 -7 24 -30 40 -52 17 -22 32 -42 35 -45 4 -3 24 -27 46 -55 123 -154
295 -319 446 -427 83 -60 110 -78 116 -78 4 0 16 -8 27 -18 39 -34 319 -188
361 -198 6 -1 30 -11 55 -22 64 -27 83 -35 103 -39 10 -1 31 -10 47 -18 17 -9
31 -15 32 -14 2 0 29 -7 62 -16 32 -9 64 -18 70 -20 6 -1 18 -5 26 -8 8 -3 42
-10 75 -16 33 -6 76 -14 95 -18 76 -16 416 -8 515 12 11 3 38 7 60 10 22 3 58
11 80 17 22 6 45 12 51 14 7 1 40 14 75 30 162 71 314 205 422 371 15 24 27
47 27 52 0 5 3 11 8 13 7 3 47 81 89 176 43 97 112 309 138 422 2 8 8 30 14
48 5 18 10 35 10 37 1 8 8 39 47 200 19 83 38 161 40 175 3 14 11 50 19 80 8
30 16 66 19 80 3 14 13 54 21 90 9 36 17 74 19 85 2 11 4 20 5 20 2 0 4 7 6
16 1 10 11 50 20 90 9 41 18 81 20 89 2 8 16 65 30 125 15 61 28 117 30 125 2
8 13 56 25 105 12 50 23 98 25 108 2 10 6 26 9 35 3 9 7 28 10 42 2 14 23 101
45 194 23 93 43 178 45 190 2 12 12 52 21 89 10 37 16 69 14 70 -2 2 -23 15
-46 30 -33 21 -41 31 -39 51 3 22 -7 31 -73 69 -234 132 -614 276 -855 323
-302 59 -544 47 -788 -39 -221 -78 -422 -235 -553 -432 -22 -33 -43 -62 -47
-65 -4 -3 -30 -53 -57 -110 -65 -139 -104 -262 -136 -430 -18 -95 -25 -281
-13 -380 10 -78 29 -163 39 -175 5 -5 9 -17 9 -27 0 -18 3 -25 33 -83 36 -71
52 -100 57 -105 3 -3 17 -21 32 -42 15 -20 33 -42 40 -50 8 -7 29 -33 48 -57
129 -166 328 -283 582 -345 220 -53 350 -51 598 9 8 2 27 8 41 13 15 6 29 9
32 6 6 -6 -14 -87 -48 -194 -87 -278 -199 -448 -360 -545 -141 -84 -293 -99
-499 -49 -34 8 -70 17 -80 19 -114 26 -401 149 -582 249 -129 71 -404 335
-481 462 -6 10 -34 55 -62 99 -53 85 -141 258 -165 321 -48 132 -58 161 -62
174 -2 8 -17 65 -33 127 -16 61 -31 126 -34 145 -3 18 -8 42 -10 53 -22 96
-31 543 -13 650 5 28 10 64 12 80 3 25 11 68 38 190 2 6 9 30 16 55 8 25 14
47 14 50 1 3 5 11 9 18 5 6 6 12 2 12 -3 0 2 17 11 38 8 20 17 45 19 55 9 43
94 226 164 352 28 50 169 258 196 290 15 17 48 55 73 85 124 145 319 313 482
414 36 23 75 46 86 53 40 26 262 131 319 153 33 12 76 28 95 35 35 14 62 22
97 30 10 2 43 11 73 19 105 30 255 55 357 60 34 2 65 6 70 8 22 11 330 -1 441
-17 17 -3 49 -7 70 -10 45 -7 206 -43 247 -55 411 -128 717 -309 1003 -598
130 -131 216 -251 325 -455 65 -121 168 -400 191 -517 3 -14 12 -61 21 -105 9
-44 18 -93 19 -110 15 -156 19 -210 19 -298 1 -92 -8 -240 -17 -307 -2 -14 -7
-45 -10 -69 -3 -24 -13 -72 -21 -106 -8 -35 -16 -74 -19 -86 -15 -75 -74 -248
-119 -349 -41 -94 -119 -245 -128 -248 -5 -2 -9 -8 -9 -13 0 -16 -104 -170
-176 -261 -60 -76 -233 -254 -311 -320 -18 -15 -75 -59 -127 -98 -92 -68 -146
-124 -154 -159 -2 -9 -6 -39 -9 -66 -6 -61 22 -131 68 -167 16 -13 29 -28 29
-34 0 -22 78 -94 121 -113 92 -41 107 -39 205 24 74 48 183 127 268 195 11 8
79 74 151 145 218 215 362 412 504 690 23 44 41 85 41 92 0 7 4 13 10 13 5 0
9 3 8 8 -1 4 16 54 39 112 46 117 94 270 86 270 -3 0 0 7 7 15 7 9 10 18 7 21
-3 3 1 23 8 45 8 22 14 42 14 44 -1 4 12 79 16 95 1 3 5 30 9 60 5 30 10 63
12 73 26 140 26 598 0 757 -3 14 -10 59 -16 100 -15 94 -18 108 -24 128 -3 9
-7 28 -10 42 -16 82 -97 337 -138 430 -58 133 -178 360 -228 430 -10 14 -28
42 -62 94 -7 11 -23 31 -35 45 -13 14 -23 29 -23 33 0 3 -6 13 -13 20 -7 7
-41 49 -77 93 -118 148 -259 298 -356 380 -26 22 -57 49 -68 60 -33 32 -163
127 -265 194 -238 156 -504 273 -795 350 -129 34 -186 46 -336 67 -19 3 -48 8
-65 10 -42 7 -513 13 -518 7z m548 -2257 c28 -4 90 -17 143 -30 51 -12 198
-58 204 -65 4 -4 3 -22 -3 -41 -5 -19 -12 -46 -15 -60 -3 -14 -13 -61 -24
-105 -15 -66 -40 -170 -76 -320 -3 -11 -7 -31 -10 -45 -3 -14 -21 -90 -41
-170 -19 -80 -36 -152 -38 -160 -2 -8 -11 -46 -19 -85 -9 -38 -19 -81 -22 -95
-2 -14 -8 -34 -11 -45 -4 -11 -6 -25 -5 -31 3 -16 -34 -46 -76 -62 -107 -40
-203 -70 -238 -76 -21 -3 -61 -9 -89 -14 -185 -29 -435 34 -546 138 -136 129
-98 580 76 885 40 70 124 180 150 197 6 3 26 20 45 37 19 17 38 31 42 31 4 0
13 6 20 13 16 14 99 57 119 61 8 2 26 8 40 14 24 10 111 28 169 35 32 4 166
-1 205 -7z"/>
</g>
</svg>
